<?xml version="1.0" encoding="utf-8"?>
<!-- Generator: Adobe Illustrator 14.0.0, SVG Export Plug-In . SVG Version: 6.00 Build 43363)  -->
<!DOCTYPE svg PUBLIC "-//W3C//DTD SVG 1.1//EN" "http://www.w3.org/Graphics/SVG/1.1/DTD/svg11.dtd">
<svg version="1.1" id="Capa_1" xmlns="http://www.w3.org/2000/svg" xmlns:xlink="http://www.w3.org/1999/xlink" x="0px" y="0px"
	 width="120px" height="40px" viewBox="0 0 120 40" enable-background="new 0 0 120 40" xml:space="preserve">
<rect y="0" fill="#0099FF" width="119.999" height="40"/>
<g>
	<circle fill="#FFFFFF" cx="20" cy="13.891" r="4.448"/>
	<path fill="#FFFFFF" d="M24.013,35.355c-1.022,1.082-1.903,1.939-2.516,2.516c-0.424,0.398-0.937,0.609-1.48,0.609
		c-0.395,0-0.989-0.113-1.574-0.668c-0.6-0.564-1.458-1.402-2.455-2.457c-2.121,0.445-3.531,1.234-3.531,2.129
		c0,1.391,3.377,2.516,7.545,2.516c4.166,0,7.543-1.125,7.543-2.516C27.544,36.59,26.134,35.801,24.013,35.355z"/>
	<path fill="#FFFFFF" d="M17.539,35.109c0.002,0,0.002,0,0.003,0c0.087,0.09,0.174,0.18,0.258,0.266
		c0.014,0.014,0.027,0.027,0.041,0.039c0.068,0.07,0.135,0.139,0.2,0.205c0.02,0.021,0.04,0.041,0.061,0.061
		c0.062,0.061,0.122,0.121,0.181,0.182c0.018,0.014,0.033,0.029,0.048,0.045c0.149,0.148,0.29,0.289,0.422,0.416
		c0.019,0.018,0.035,0.033,0.053,0.049c0.045,0.047,0.09,0.09,0.133,0.131c0.021,0.021,0.043,0.041,0.065,0.061
		c0.04,0.039,0.078,0.078,0.117,0.113c0.019,0.02,0.036,0.035,0.055,0.053c0.052,0.051,0.104,0.1,0.153,0.146
		c0.054,0.051,0.109,0.094,0.165,0.133c0.019,0.016,0.037,0.023,0.056,0.035c0.037,0.023,0.074,0.047,0.113,0.063
		c0.021,0.012,0.045,0.018,0.068,0.025c0.032,0.014,0.066,0.027,0.102,0.035c0.023,0.006,0.047,0.008,0.071,0.01
		c0.033,0.006,0.065,0.012,0.098,0.012c0.005,0,0.011,0.004,0.016,0.004c0.025,0,0.05-0.008,0.074-0.008
		c0.023-0.004,0.045-0.004,0.068-0.008c0.031-0.008,0.063-0.018,0.095-0.027c0.02-0.008,0.042-0.012,0.062-0.02
		c0.034-0.016,0.068-0.035,0.103-0.055c0.016-0.012,0.032-0.018,0.05-0.027c0.049-0.035,0.097-0.072,0.146-0.117
		c0.051-0.047,0.104-0.098,0.159-0.15c0.013-0.01,0.023-0.023,0.034-0.033c0.05-0.047,0.101-0.094,0.153-0.145
		c0.009-0.01,0.019-0.02,0.027-0.027c0.197-0.189,0.418-0.402,0.661-0.645c0.002-0.002,0.005-0.004,0.008-0.008
		c0.24-0.238,0.5-0.502,0.779-0.789c0.008-0.008,0.016-0.016,0.024-0.023l0,0c3.944-4.066,11.247-12.701,11.247-20.91
		C33.707,6.356,27.264,0,20.001,0C12.736,0,6.294,6.356,6.294,14.2C6.294,22.408,13.596,31.043,17.539,35.109L17.539,35.109z
		 M12.624,13.891c0-4.074,3.304-7.375,7.377-7.375c4.073,0,7.374,3.301,7.374,7.375c0,4.074-3.301,7.375-7.374,7.375
		C15.928,21.266,12.624,17.965,12.624,13.891z"/>
</g>
<g>
	<path fill="#FFFFFF" d="M54.239,13.934c0.376-0.375,0.911-1.026,1.19-1.71c0.964-2.364,0.523-2.822,0.523-2.822
		c-0.632-1.366-1.99-3.189-3.78-4.982c-1.792-1.794-3.618-3.147-4.982-3.782c0,0-2.22-0.682-3.884,0.987
		c-0.01-0.005,0,0-0.016,0.018c-0.003,0.003-0.006,0.003-0.009,0.003l0.003,0.003c-0.229,0.231-0.442,0.461-0.64,0.689
		L54.239,13.934z"/>
	<path fill="#FFFFFF" d="M77.859,31.309c-0.631-1.366-1.985-3.188-3.779-4.984c-1.792-1.792-3.618-3.146-4.983-3.781
		c0,0-0.459-0.438-2.822,0.527c-0.683,0.278-1.334,0.816-1.709,1.188L76.16,35.853c0.227-0.199,0.458-0.41,0.692-0.641l0,0
		c0,0,0,0,0.002-0.005c0.019-0.018,0.021-0.01,0.019-0.018C78.543,33.523,77.859,31.309,77.859,31.309z"/>
	<path fill="#FFFFFF" d="M63.326,25.924c-0.366,0.491-0.946,0.693-1.641,0.693c-2.111,0-5.266-1.889-6.592-3.211
		c-1.761-1.762-4.513-6.749-2.518-8.234c0.111-0.069,0.225-0.139,0.342-0.217L41.631,3.671C39.931,6.252,40,8.312,40,8.312
		s-0.295,9.368,10.263,19.923c10,10.001,18.928,10.265,19.844,10.265c0.054,0,0.078,0,0.078,0s0.011,0,0.035,0
		c0.278,0,2.218-0.06,4.607-1.633L63.543,25.582C63.467,25.697,63.393,25.809,63.326,25.924z"/>
</g>
<path fill="#FFFFFF" d="M116.385,11.332c-1.191-4.238-3.978-7.34-8.062-8.973C102.448,0.007,95.22,0.752,89.911,4.25
	c-1.306,0.863-2.472,1.876-3.501,3.019c-3.288,3.648-5.136,8.646-5.282,14.504c-0.171,6.765,2.658,12.112,7.963,15.057
	C91.707,38.28,94.754,39,97.786,39c2.805,0,5.598-0.616,8.03-1.837c0.536-0.269,1.058-0.565,1.555-0.895l-2.138-3.243
	c-3.971,2.618-9.969,2.787-14.259,0.408c-2.816-1.563-6.135-4.835-5.964-11.566c0.138-5.67,1.977-9.403,4.125-11.841
	c0.952-1.08,1.965-1.908,2.913-2.535c4.282-2.818,10.103-3.418,14.832-1.529c2.96,1.184,4.902,3.343,5.762,6.416
	c1.212,4.314-0.062,9.114-1.944,11.623c-0.498,0.664-0.999,1.172-1.451,1.499c-0.507,0.359-0.959,0.501-1.301,0.365
	c-0.52-0.194-0.854-0.907-0.824-1.293c0.043-0.513,0.169-1.418,0.346-2.523c0.044-0.128,0.085-0.256,0.126-0.385l-0.065-0.02
	c0.482-2.965,1.255-7.084,1.607-8.936l0.293-1.51l-1.404-0.631c-0.311-0.137-7.686-3.336-14.844,2.5
	c-0.567,0.462-1.08,0.967-1.538,1.506c-2.108,2.469-3.03,5.646-2.437,8.688c0.569,2.929,2.509,5.166,5.187,5.989
	c3.822,1.175,7.158,0.148,9.594-1.981c0.594,1.004,1.507,1.818,2.593,2.23c0.914,0.344,3.015,0.761,5.42-1.233
	c0.588-0.488,1.194-1.119,1.805-1.936C116.711,22.453,117.772,16.286,116.385,11.332z M103.699,21.047
	c-0.49,1.229-1.354,2.639-2.626,3.614c-1.363,1.054-3.2,1.604-5.536,0.88c-1.307-0.401-2.225-1.503-2.521-3.021
	c-0.344-1.763,0.209-3.683,1.427-5.229c0.345-0.438,0.742-0.849,1.189-1.213c2.553-2.082,5.125-2.627,7.115-2.627
	c0.882,0,1.651,0.106,2.255,0.234C104.651,15.555,104.091,18.603,103.699,21.047z"/>
</svg>
