<?xml version="1.0" encoding="utf-8"?>
<!-- Generator: Adobe Illustrator 14.0.0, SVG Export Plug-In . SVG Version: 6.00 Build 43363)  -->
<!DOCTYPE svg PUBLIC "-//W3C//DTD SVG 1.1//EN" "http://www.w3.org/Graphics/SVG/1.1/DTD/svg11.dtd">
<svg version="1.1" id="Capa_1" xmlns="http://www.w3.org/2000/svg" xmlns:xlink="http://www.w3.org/1999/xlink" x="0px" y="0px"
	 width="1580px" height="340px" viewBox="0 0 1580 340" enable-background="new 0 0 1580 340" xml:space="preserve">
<g>
	<g>
		<path fill="#38AADD" d="M511.491,214.541h-35.144v-14.159l-14.631,8.353c-4.061,2.286-8.324,4.074-12.768,5.356
			c-4.454,1.262-9.275,1.89-14.429,1.89c-12.202,0-21.82-3.76-28.84-11.355c-7.022-7.56-10.526-17.566-10.526-30.026V90.567h35.157
			v76.012c0,4.546,1.617,8.518,4.86,11.96c3.212,3.455,8.161,5.213,14.89,5.213c6.203,0,11.555-1.332,16.02-3.98
			c4.469-2.646,7.891-5.068,10.268-7.273V90.567h35.144V214.541z"/>
		<path fill="#38AADD" d="M649.49,149.183c0,19.184-5.92,34.994-17.69,47.421c-11.821,12.444-26.143,18.671-43.006,18.671
			c-5.82,0-11.134-0.497-15.962-1.438c-4.849-0.928-8.791-2.162-11.778-3.647v42.049h-34.827V90.567l33.307-2.537l1.871,7.303
			l11.811-5.771c3.809-1.865,7.153-3.281,10.084-4.312c2.937-1.04,6.422-1.574,10.435-1.574c17.093,0,30.63,6.201,40.701,18.538
			C644.458,114.571,649.49,130.248,649.49,149.183z M613.605,150.797c0-10.232-2.675-19.052-7.971-26.527
			c-5.314-7.479-12.625-11.196-21.953-11.196c-6.164,0-11.024,0.948-14.547,2.953c-3.558,1.989-6.235,4.042-8.08,6.203v58.593
			c1.845,2.183,4.897,3.952,9.22,5.255c4.337,1.354,9.093,1.996,14.325,1.996c9.952,0,17.256-3.145,21.977-9.471
			C611.242,172.317,613.605,163.014,613.605,150.797z"/>
	</g>
</g>
<g>
	<path fill="#FFFFFF" d="M757.338,168.67c0,12.46-4.453,22.478-13.348,30.055c-8.881,7.557-19.892,11.354-33.019,11.354
		c-6.146,0-13.512-0.606-22.081-1.85c-8.608-1.225-16.202-3.626-22.825-7.14v-28.984c5.229,2.997,11.16,5.553,17.819,7.731
		c6.638,2.174,14.356,3.257,23.13,3.257c6.303,0,11.381-0.917,15.233-2.707c3.854-1.791,5.759-5.081,5.759-9.8
		c0-3.097-1.617-5.642-4.883-7.594c-3.259-1.923-8.911-3.254-16.981-3.964c-14.432-1.214-24.571-4.734-30.365-10.524
		c-5.822-5.81-8.725-13.58-8.725-23.358c0-11.028,4.427-20.131,13.305-27.262c8.876-7.156,19.785-10.736,32.728-10.736
		c5.666,0,11.719,0.505,18.133,1.534c6.454,0.994,11.943,2.276,16.464,3.781v28.986c-5.609-2.51-11.199-4.362-16.791-5.551
		c-5.552-1.173-11.566-1.781-18.011-1.781c-5.199,0-9.239,0.909-12.146,2.65c-2.896,1.765-4.365,3.827-4.365,6.152
		c0,4.308,2.082,7.176,6.207,8.549c4.14,1.357,8.466,2.218,13.024,2.496c13.88,0.921,24.298,4.376,31.263,10.404
		C753.847,150.387,757.338,158.497,757.338,168.67z"/>
	<path fill="#FFFFFF" d="M890.265,148.608c0,18.759-5.382,33.664-16.099,44.785c-10.754,11.131-25.48,16.686-44.188,16.686
		c-20.147,0-35.226-5.594-45.247-16.779c-10.055-11.18-15.062-26.083-15.062-44.691c0-16.886,5.402-31.369,16.201-43.416
		c10.828-12.026,25.515-18.044,44.108-18.044c18.647,0,33.343,5.535,44.124,16.669C884.858,114.902,890.265,129.849,890.265,148.608
		z M857.287,148.608c0-9.235-2.412-17.46-7.242-24.673c-4.828-7.219-11.498-10.802-20.031-10.802
		c-9.802,0-16.787,3.284-21.028,9.846c-4.22,6.57-6.335,15.096-6.335,25.63c0,9.808,2.516,18.191,7.598,25.099
		c5.076,6.926,11.883,10.383,20.398,10.383c9.525,0,16.314-2.805,20.438-8.439C855.225,170.059,857.287,161.032,857.287,148.608z"/>
	<path fill="#FFFFFF" d="M975.135,71.943c-2.061-0.725-4.849-1.245-8.361-1.577c-3.509-0.375-6.506-0.56-9.059-0.56
		c-4.257,0-7.484,1.116-9.639,3.286c-2.152,2.212-3.27,5.573-3.27,10.152v10.553h84.339v20.985h-84.339v92.964h-32.281v-92.964
		h-10.65V93.798h10.65v-14.64c0-10.28,3.506-18.878,10.527-25.864c7.044-6.979,15.8-10.451,26.361-10.451
		c5.279,0,10.322,0.419,15.096,1.34c4.778,0.854,8.321,1.927,10.625,3.107V71.943z"/>
	<path fill="#FFFFFF" d="M1043.631,187.748l-23.354,22.331c-9.76-4.04-17.085-9.925-21.947-17.672
		c-4.906-7.721-7.338-17.005-7.338-27.725v-49.899h-10.658V93.798h10.658V56.155l32.311-2.337v39.979h16.992v20.985h-16.992v40.615
		c0,8.094,1.842,14.856,5.517,20.194C1032.467,180.949,1037.407,185.02,1043.631,187.748z"/>
	<path fill="#FFFFFF" d="M1234.243,103.133l-43.962,104.614h-27.309l-21.75-62.654l-21.248,62.654h-27.309l-43.974-104.614
		l30.63-13.992l27.141,75.282l22.152-70.625h27.271l21.665,70.61l28.262-75.268L1234.243,103.133z"/>
	<path fill="#FFFFFF" d="M1364.045,190.366l-25.46,20.727c-3.909-1.266-7.31-3.289-10.228-6.017c-2.9-2.734-4.807-5.834-5.745-9.362
		l-19.923,11.35c-0.783,0.426-2.102,0.879-3.967,1.315c-1.896,0.447-3.455,0.687-4.736,0.687c-15.328,0-28.004-5.284-37.996-15.801
		c-10.009-10.553-14.986-25.211-14.986-43.966c0-17.829,5.173-32.544,15.556-44.134c10.382-11.56,23.612-17.365,39.71-17.365
		c6.42,0,12.423,1.286,17.996,3.866c5.58,2.553,9.239,4.827,11.015,6.815l18.604-6.668l6.38,1.985v72.809
		c0,6.378,1.123,11.43,3.343,15.19C1355.834,185.537,1359.309,188.396,1364.045,190.366z M1319.29,174.398v-49.955
		c-2.12-2.626-4.865-4.906-8.266-6.809c-3.396-1.885-7.539-2.852-12.46-2.852c-7.064,0-12.936,2.635-17.596,7.875
		c-4.681,5.214-6.982,13.895-6.982,25.975c0,9.589,2.154,17.281,6.5,23.088c4.337,5.8,10.445,8.7,18.311,8.7
		c4.459,0,8.681-0.723,12.591-2.149C1315.32,176.83,1317.932,175.56,1319.29,174.398z"/>
	<path fill="#FFFFFF" d="M1458.875,127.449c-2.066-1.588-4.961-2.961-8.7-4.169c-3.749-1.215-8.117-1.83-13.171-1.83
		c-5.911,0-10.898,0.892-14.966,2.658c-4.038,1.791-7.435,4.008-10.13,6.602v77.037h-32.33V93.798l32.33-2.331v11.287l10.362-6.381
		c3.208-1.958,6.872-3.632,11.051-4.939c4.159-1.3,7.975-1.967,11.47-1.967c3.701,0,6.656,0.248,8.912,0.686
		c2.23,0.452,3.973,0.957,5.172,1.532V127.449z"/>
	<path fill="#FFFFFF" d="M1580.215,158.825h-80.958c1.713,7.027,5.269,13.542,10.659,17.505c5.404,4.006,11.95,5.99,19.641,5.99
		c6.201,0,13.044-0.906,20.544-2.717c7.479-1.774,19.097-6.361,23.438-9.273v28.053c-4.076,2.92-15.919,7.428-24.11,9.155
		c-8.192,1.675-14.78,2.541-19.751,2.541c-19.728,0-35.1-5.392-46.155-16.202c-11.076-10.764-16.594-25.204-16.594-43.307
		c0-18.279,5.643-32.974,16.965-44.189c11.343-11.22,25.459-16.802,42.434-16.802c16.961,0,30.472,6.004,40.54,17.987
		C1576.939,119.554,1580.273,136,1580.215,158.825z M1550.829,137.89c-1.596-4.587-3.124-11.021-7.858-15.359
		c-4.796-4.344-10.7-7.317-17.789-7.317c-8.23,0-14.465,3.147-18.633,7.843c-4.197,4.713-6.756,10.96-7.62,14.833H1550.829z"/>
</g>
<g>
	<path fill="#74CBEF" d="M242.507,33.197c0,0,82.663,116.979-2.497,270.383C309.344,218.576,326.423,128.899,242.507,33.197z"/>
	<path fill="#74CBEF" d="M96.667,299.855c0,0-82.665-116.976,2.519-270.381C29.854,114.479,12.755,204.161,96.667,299.855z"/>
	<path fill="#38AADD" d="M168.86,0.064c0,0,61.206,139.733,0.818,335.788C120.532,229.616,134.318,54.861,168.86,0.064z"/>
	<path fill="#2BBBE9" d="M197.928,1.95c0,0,61.817,136.984,0.816,329.152C274.915,226.732,281.413,98.217,197.928,1.95z"/>
	<path fill="#2BBBE9" d="M141.246,331.103c0,0-61.817-136.983-0.819-329.152C64.282,106.324,57.764,234.84,141.246,331.103z"/>
	<path fill="#38AADD" d="M336.047,165.802c0,0-139.754,61.202-335.783,0.794C106.5,117.476,281.273,131.258,336.047,165.802z"/>
	<path fill="#2BBBE9" d="M334.183,194.894c0,0-137.005,61.793-329.176,0.793C109.382,271.834,237.898,278.352,334.183,194.894z"/>
	<path fill="#74CBEF" d="M302.915,239.448c0,0-116.953,82.665-270.381-2.495C117.538,306.283,207.217,323.361,302.915,239.448z"/>
	<path fill="#2BBBE9" d="M5.007,138.165c0,0,136.987-61.794,329.157-0.796C229.813,61.225,101.277,54.705,5.007,138.165z"/>
	<path fill="#74CBEF" d="M36.258,93.609c0,0,116.978-82.665,270.38,2.498C221.659,26.773,131.954,9.694,36.258,93.609z"/>
</g>
</svg>
