<?xml version="1.0" encoding="utf-8"?>
<!-- Generator: Adobe Illustrator 14.0.0, SVG Export Plug-In . SVG Version: 6.00 Build 43363)  -->
<!DOCTYPE svg PUBLIC "-//W3C//DTD SVG 1.1//EN" "http://www.w3.org/Graphics/SVG/1.1/DTD/svg11.dtd">
<svg version="1.1" id="Capa_1" xmlns="http://www.w3.org/2000/svg" xmlns:xlink="http://www.w3.org/1999/xlink" x="0px" y="0px"
	 width="280px" height="70px" viewBox="0 0 280 70" enable-background="new 0 0 280 70" xml:space="preserve">
<path fill="#939393" stroke="#FFFFFF" stroke-width="3" d="M67.499,34.999C67.499,52.949,52.95,67.5,35,67.5
	S2.501,52.949,2.501,34.999C2.501,17.051,17.05,2.5,35,2.5S67.499,17.051,67.499,34.999"/>
<path fill="#FFFFFF" d="M46.1,22.05H22.783c-1.073,0-1.942,0.869-1.942,1.942v1.943c0,1.073,0.869,1.942,1.942,1.942H46.1
	c1.072,0,1.942-0.869,1.942-1.942v-1.943C48.042,22.919,47.173,22.05,46.1,22.05"/>
<path fill="#FFFFFF" d="M52.678,30.225H32.932c-0.909,0-1.646,0.871-1.646,1.943v1.942c0,1.073,0.737,1.945,1.646,1.945h19.746
	c0.908,0,1.646-0.872,1.646-1.945v-1.942C54.322,31.096,53.587,30.225,52.678,30.225"/>
<text transform="matrix(1 0 0 1 15.3999 27.707)" fill="#FFFFFF" font-family="'MyriadPro-Bold'" font-size="6.9635">1</text>
<text transform="matrix(1 0 0 1 25.9902 35.6875)" fill="#FFFFFF" font-family="'MyriadPro-Bold'" font-size="6.9635">2</text>
<text transform="matrix(1 0 0 1 13.9492 43.6641)" fill="#FFFFFF" font-family="'MyriadPro-Bold'" font-size="6.9635">3</text>
<path fill="#FFFFFF" d="M58.357,39.096H22.276c-1.074,0-1.943,0.868-1.943,1.942v1.944c0,1.072,0.869,1.939,1.943,1.939h36.082
	c1.071,0,1.942-0.867,1.942-1.939v-1.944C60.3,39.965,59.431,39.096,58.357,39.096"/>
<path fill="#939393" stroke="#FFFFFF" stroke-width="3" d="M137.5,35c0,17.95-14.549,32.5-32.5,32.5
	c-17.949,0-32.5-14.549-32.5-32.5c0-17.949,14.551-32.5,32.5-32.5C122.95,2.5,137.5,17.051,137.5,35"/>
<path fill="#FFFFFF" stroke="#939393" stroke-width="3" d="M121.426,30.496h-1.699c-0.29-0.948-0.672-1.855-1.133-2.717l1.207-1.207
	c1.402-1.402,1.404-3.678,0-5.082l-1.291-1.29c-0.674-0.675-1.588-1.053-2.543-1.053c-0.954,0-1.866,0.38-2.541,1.053l-1.208,1.206
	c-0.86-0.458-1.768-0.84-2.715-1.131v-1.7c0-1.985-1.609-3.593-3.594-3.593h-1.825c-1.985,0-3.595,1.607-3.595,3.593v1.7
	c-0.946,0.288-1.855,0.669-2.716,1.131L96.569,20.2c-1.404-1.404-3.68-1.404-5.085,0l-1.289,1.29c-1.403,1.401-1.403,3.68,0,5.082
	l1.206,1.206c-0.458,0.862-0.841,1.77-1.132,2.716h-1.697c-1.984,0-3.594,1.608-3.594,3.594v1.823c0,1.985,1.608,3.595,3.594,3.595
	h1.698c0.29,0.947,0.672,1.854,1.131,2.715l-1.206,1.207c-1.402,1.401-1.402,3.68-0.001,5.082l1.292,1.293
	c0.674,0.67,1.588,1.051,2.541,1.051h0.001c0.953,0,1.866-0.381,2.541-1.051l1.207-1.209c0.859,0.461,1.769,0.842,2.716,1.133v1.701
	c0,1.982,1.607,3.592,3.593,3.592h1.826c1.985,0,3.593-1.606,3.593-3.592v-1.701c0.948-0.291,1.854-0.67,2.715-1.133l1.209,1.209
	c0.673,0.674,1.588,1.051,2.542,1.051c0.954,0,1.865-0.381,2.542-1.051l1.289-1.293c1.404-1.402,1.402-3.678,0-5.08l-1.207-1.205
	c0.459-0.863,0.84-1.771,1.133-2.717h1.699c1.985,0,3.594-1.611,3.594-3.595V34.09C125.02,32.104,123.41,30.496,121.426,30.496
	 M105.001,43.214c-4.528,0-8.215-3.683-8.215-8.214c0-4.528,3.687-8.212,8.215-8.212c4.529,0,8.214,3.685,8.214,8.212
	C113.215,39.529,109.53,43.214,105.001,43.214"/>
<circle fill="#939393" stroke="#FFFFFF" stroke-width="3" cx="245" cy="35" r="32.5"/>
<path fill="#FFFFFF" d="M256.41,17.429c0-1.49-1.213-2.703-2.703-2.703h-17.416c-1.49,0-2.703,1.214-2.703,2.704l0.002,35.145
	c0,1.489,1.213,2.7,2.701,2.7h0.001h17.417l0,0c0.723,0,1.4-0.279,1.911-0.791c0.51-0.51,0.792-1.189,0.792-1.912L256.41,17.429z
	 M245,53.613c-0.406,0-0.789-0.159-1.076-0.446c-0.287-0.286-0.445-0.669-0.445-1.077c0-0.406,0.158-0.787,0.445-1.076
	c0.288-0.285,0.67-0.445,1.076-0.445c0.841,0,1.521,0.687,1.521,1.522C246.521,52.93,245.84,53.613,245,53.613v0.298V53.613
	L245,53.613z M254.693,48.975l-19.389,0.002V17.824h19.389V48.975z"/>
<rect x="235.008" y="17.126" fill="none" stroke="#FFFFFF" stroke-width="3" stroke-linecap="round" stroke-linejoin="round" stroke-miterlimit="10" width="19.984" height="31.748"/>
<g>
	<g>
		<g>
			<path fill="#FFFFFF" d="M241.986,36.584c-0.994,0.16-0.743,1.355-0.743,2.104c0,0.656-0.218,1.969,0.801,1.969
				s0.802-1.313,0.802-1.969c0-0.746,0.25-1.939-0.746-2.104c-0.265-0.043-0.379,0.363-0.111,0.404
				c0.722,0.115,0.439,2.293,0.439,2.844c0,0.535-0.761,0.139-0.761-0.16c0-0.129,0-0.258,0-0.387c0-0.199,0-0.398,0-0.6
				c0-0.459-0.217-1.592,0.438-1.697C242.367,36.947,242.252,36.541,241.986,36.584L241.986,36.584z"/>
		</g>
	</g>
	<g>
		<g>
			<path fill="#FFFFFF" d="M249.779,37.32c-0.188-1.139-1.594-0.82-1.594,0.238c0,0.766,0,1.527,0,2.295c0,1.09,1.6,0.986,1.6-0.088
				c0-0.797,0-1.596,0-2.393c0-0.271-0.42-0.271-0.42,0c0,0.816,0,1.639,0,2.455c0,0.535-0.76,0.143-0.76-0.158
				c0-0.131,0-0.26,0-0.387c0-0.201,0-0.4,0-0.602c0-0.203,0-0.406,0-0.607c0-0.135,0-0.268,0-0.396c0-0.072,0-0.146,0-0.217
				c-0.021-0.299,0.232-0.311,0.768-0.029C249.417,37.699,249.822,37.586,249.779,37.32z"/>
		</g>
	</g>
	<g>
		<g>
			<path fill="#FFFFFF" d="M242.874,36.68c-0.011,0-0.021,0-0.028,0c-0.115,0-0.211,0.096-0.211,0.211c0,1.076,0,2.154,0,3.232
				c0,0.32-0.063,0.764,0.109,1.059c0.191,0.328,0.979,0.59,0.979,0.279c0,0.498-0.207,2.344,0.855,2.057
				c0.455-0.123,0.744-0.352,0.744-0.867c0-0.281,0-0.566,0-0.854c0-0.414-0.211-0.217,0.074-0.217c0.146,0,0.291,0,0.438,0
				c-0.126-0.176-0.169-0.158-0.128,0.051c0,0.279,0,0.557,0,0.836c0,0.332,0.037,0.859,0.446,0.971
				c1.26,0.34,1.154-0.951,1.154-1.807c0-0.23-0.134-0.051,0.285-0.051c0.326,0,0.45-0.146,0.657-0.354
				c0.2-0.201,0.146-0.662,0.146-0.918c0-1.143,0-2.277,0-3.418c0-0.115-0.099-0.211-0.213-0.211
				C246.414,36.68,244.645,36.68,242.874,36.68c-0.271,0-0.271,0.422,0,0.422c1.722,0,3.44,0,5.161,0
				c0.23,0-0.061-0.357-0.061,0.104c0,0.502,0,1.004,0,1.506c0,0.887,0.399,2.451-0.877,2.451c-0.115,0-0.211,0.096-0.211,0.209
				c0,0.428,0,0.854,0,1.279c-0.568,0.254-0.822,0.191-0.762-0.186c0-0.16,0-0.322,0-0.482c0-0.205,0-0.406,0-0.611
				c0-0.113-0.098-0.209-0.211-0.209c-0.27,0-0.537,0-0.807,0c-0.112,0-0.211,0.096-0.211,0.209c0,0.428,0,0.854,0,1.279
				c-0.565,0.254-0.819,0.191-0.76-0.186c0-0.16,0-0.322,0-0.484c0-0.203,0-0.404,0-0.609c0-0.113-0.096-0.209-0.209-0.209
				c-1.184,0-0.877-1.119-0.877-1.947c0-0.484,0-0.977,0-1.461c0-0.186,0-0.365,0-0.549c0-0.443,0.055-0.104-0.183-0.104
				C243.146,37.102,243.146,36.68,242.874,36.68z"/>
		</g>
	</g>
	<g>
		<g>
			<path fill="#FFFFFF" d="M248.391,36.684c0-0.781-0.311-1.396-0.869-1.938c-0.396-0.384-0.551,0.024-0.237-0.551
				c0.126-0.232,0.219-0.33,0.142-0.589c-0.027-0.106-0.146-0.179-0.258-0.146c-0.26,0.076-0.288,0.195-0.418,0.434
				c-0.059,0.104-0.109,0.207-0.169,0.313c-0.054,0.158-0.089,0.144-0.113-0.047c-0.301-0.111-0.63-0.125-0.942-0.142
				c-0.215-0.013-0.453,0.036-0.664,0.069c-0.42,0.063-0.271,0.361-0.484-0.028c-0.148-0.274-0.199-0.509-0.506-0.599
				c-0.112-0.033-0.229,0.037-0.26,0.146c-0.063,0.203-0.035,0.263,0.063,0.44c0.083,0.152,0.165,0.305,0.248,0.455
				c0.066,0.125-0.1,0.014-0.341,0.194c-0.608,0.46-0.95,1.237-0.937,1.989c0.004,0.111,0.094,0.209,0.211,0.209
				c1.774,0,3.554,0,5.328,0c0.271,0,0.271-0.42,0-0.42c-1.027,0-2.057,0-3.082,0c-0.631,0-1.262,0-1.891,0
				c-0.113,0-0.229,0-0.348,0c0.066,0.043,0.134,0.086,0.199,0.129c0-0.338,0.084-0.654,0.25-0.951
				c0.197-0.417,0.59-0.695,0.976-0.922c0.103-0.061,0.131-0.188,0.075-0.288c-0.129-0.237-0.258-0.476-0.387-0.714
				c-0.063,0.041-0.129,0.082-0.193,0.121c0.047,0.087,0.094,0.174,0.14,0.26c0.084,0.154,0.168,0.309,0.251,0.463
				c0.043,0.077,0.153,0.129,0.238,0.098c0.747-0.279,1.466-0.28,2.213-0.004c0.086,0.031,0.193-0.021,0.236-0.098
				c0.133-0.238,0.262-0.479,0.391-0.719c-0.063-0.04-0.129-0.08-0.191-0.121c-0.045,0.085-0.094,0.169-0.139,0.254
				c-0.083,0.152-0.166,0.305-0.246,0.456c-0.057,0.101-0.025,0.228,0.074,0.287c0.747,0.44,1.225,1.075,1.225,1.96
				C247.971,36.955,248.391,36.955,248.391,36.684z"/>
			<path fill="#FFFFFF" d="M246.729,35.449c0.057,0.002,0.057,0.075,0,0.079C246.676,35.533,246.678,35.451,246.729,35.449
				c0.271-0.021,0.271-0.441,0-0.422c-0.264,0.02-0.438,0.196-0.459,0.461c-0.021,0.264,0.228,0.442,0.459,0.461
				c0.267,0.02,0.444-0.227,0.463-0.461c0.021-0.263-0.228-0.443-0.463-0.461C246.459,35.008,246.461,35.429,246.729,35.449
				L246.729,35.449z"/>
			<path fill="#FFFFFF" d="M244.299,35.449c0.055,0.002,0.055,0.075,0,0.079C244.247,35.531,244.248,35.451,244.299,35.449
				c0.27-0.021,0.271-0.441,0-0.422c-0.262,0.02-0.441,0.196-0.46,0.461c-0.021,0.264,0.226,0.442,0.46,0.461
				c0.264,0.02,0.444-0.227,0.463-0.461c0.021-0.263-0.228-0.443-0.463-0.461C244.029,35.008,244.031,35.429,244.299,35.449
				L244.299,35.449z"/>
		</g>
	</g>
</g>
<g>
	<g>
		<g>
			<path fill="#FFFFFF" d="M246.021,23.055c0.328-0.404,0.523-0.914,0.537-1.438c0.002-0.143-0.139-0.231-0.27-0.202
				c-1.012,0.229-1.746,1.102-1.85,2.125c-0.016,0.148,0.145,0.219,0.268,0.201C245.204,23.668,245.678,23.414,246.021,23.055
				c0.188-0.197-0.111-0.495-0.297-0.299c-0.301,0.313-0.701,0.517-1.127,0.58c0.088,0.066,0.176,0.133,0.264,0.203
				c0.084-0.838,0.725-1.535,1.541-1.721c-0.088-0.068-0.176-0.135-0.266-0.203c-0.01,0.408-0.158,0.827-0.412,1.141
				C245.555,22.965,245.85,23.264,246.021,23.055z"/>
		</g>
	</g>
	<g>
		<g>
			<path fill="#FFFFFF" d="M243.342,30.47c0.559-0.066,1.137-0.385,1.692-0.289c0.413,0.068,0.788,0.361,1.233,0.283
				c1.08-0.193,1.688-1.362,2.094-2.271c0.048-0.104,0.031-0.224-0.074-0.286c-1.293-0.771-1.398-2.31-0.215-3.271
				c0.091-0.074,0.072-0.221,0-0.297c-0.943-0.983-1.943-1.076-3.152-0.582c-0.291,0.119-1.213-0.318-1.576-0.342
				c-0.5-0.033-1.119,0.213-1.482,0.545c-1.068,0.972-1.191,2.307-0.868,3.653c0.255,1.063,1.089,2.667,2.296,2.85
				c0.268,0.039,0.379-0.365,0.109-0.406c-1.104-0.166-1.705-1.641-2.002-2.555c-0.455-1.404-0.02-3.07,1.457-3.599
				c0.764-0.271,1.242,0.292,1.924,0.292c0.951,0,1.279-0.633,2.414-0.079c0.607,0.299-0.313,1.204-0.36,1.676
				c-0.06,0.58-0.03,1.21,0.351,1.691c0.168,0.215,0.324,0.442,0.564,0.587c0.521,0.311-0.938,1.693-1.129,1.835
				c-0.574,0.431-1.264-0.192-1.84-0.192c-0.473,0-0.973,0.278-1.436,0.334C243.077,30.083,243.074,30.505,243.342,30.47z"/>
		</g>
	</g>
</g>
<path fill="#939393" stroke="#FFFFFF" stroke-width="3" d="M175,2.5c17.947,0,32.5,14.552,32.5,32.501
	c0,17.95-14.553,32.5-32.5,32.5c-17.949,0-32.5-14.55-32.5-32.5C142.5,17.051,157.051,2.5,175,2.5z"/>
<polyline fill="none" stroke="#FFFFFF" stroke-width="3" points="157.352,53.277 157.352,40.227 165.918,40.227 "/>
<path fill="none" stroke="#FFFFFF" stroke-width="3" d="M165.918,53.277"/>
<polyline fill="none" stroke="#FFFFFF" stroke-width="3" points="167.271,53.277 167.271,34.698 175.842,34.698 "/>
<path fill="none" stroke="#FFFFFF" stroke-width="3" d="M175.842,53.277"/>
<polyline fill="none" stroke="#FFFFFF" stroke-width="3" points="177.461,53.277 177.461,29.721 186.029,29.721 "/>
<path fill="none" stroke="#FFFFFF" stroke-width="3" d="M186.029,53.277"/>
<polyline fill="none" stroke="#FFFFFF" stroke-width="3" points="187.63,53.277 187.63,24.014 196.199,24.014 "/>
<path fill="none" stroke="#FFFFFF" stroke-width="3" d="M153.799,38.646c0,0,26.652-8.021,39.098-21.923"/>
</svg>
