<?xml version="1.0" encoding="utf-8"?>
<!-- Generator: Adobe Illustrator 14.0.0, SVG Export Plug-In . SVG Version: 6.00 Build 43363)  -->
<!DOCTYPE svg PUBLIC "-//W3C//DTD SVG 1.1//EN" "http://www.w3.org/Graphics/SVG/1.1/DTD/svg11.dtd">
<svg version="1.1" id="Capa_1" xmlns="http://www.w3.org/2000/svg" xmlns:xlink="http://www.w3.org/1999/xlink" x="0px" y="0px"
	 width="1024px" height="180px" viewBox="0 0 1024 180" enable-background="new 0 0 1024 180" xml:space="preserve">
<g>
	<path fill="#0099FF" stroke="#FFFFFF" stroke-width="3" d="M206.062-107.002c0,43.117-34.947,78.066-78.062,78.066
		s-78.063-34.949-78.063-78.066c0-43.113,34.947-78.063,78.063-78.063S206.062-150.115,206.062-107.002"/>
	<path fill="#FFFFFF" d="M154.662-138.107H98.656c-2.579,0-4.666,2.089-4.666,4.666v4.668c0,2.577,2.086,4.666,4.666,4.666h56.006
		c2.575,0,4.666-2.089,4.666-4.666v-4.668C159.328-136.019,157.239-138.107,154.662-138.107"/>
	<path fill="#FFFFFF" d="M170.463-118.47h-47.432c-2.184,0-3.953,2.092-3.953,4.668v4.666c0,2.577,1.769,4.669,3.953,4.669h47.432
		c2.18,0,3.951-2.093,3.951-4.669v-4.666C174.412-116.378,172.646-118.47,170.463-118.47"/>
	<text transform="matrix(1 0 0 1 80.9194 -124.5166)" fill="#FFFFFF" font-family="'MyriadPro-Bold'" font-size="16.7258">1</text>
	<text transform="matrix(1 0 0 1 106.3579 -105.3496)" fill="#FFFFFF" font-family="'MyriadPro-Bold'" font-size="16.7258">2</text>
	<text transform="matrix(1 0 0 1 77.4351 -86.1895)" fill="#FFFFFF" font-family="'MyriadPro-Bold'" font-size="16.7258">3</text>
	<path fill="#FFFFFF" d="M184.105-97.164H97.437c-2.579,0-4.666,2.086-4.666,4.666v4.67c0,2.576,2.086,4.666,4.666,4.666h86.669
		c2.574,0,4.666-2.09,4.666-4.666v-4.67C188.771-95.074,186.684-97.164,184.105-97.164"/>
</g>
<g>
	<path fill="#0099FF" stroke="#FFFFFF" stroke-width="3" d="M462.063-107c0,43.115-34.945,78.063-78.063,78.063
		c-43.113,0-78.063-34.944-78.063-78.063c0-43.113,34.95-78.063,78.063-78.063C427.116-185.062,462.063-150.113,462.063-107"/>
	<path fill="#FFFFFF" stroke="#0099FF" stroke-width="3" d="M423.455-117.82h-4.082c-0.696-2.279-1.613-4.457-2.721-6.526l2.9-2.9
		c3.366-3.367,3.37-8.833,0-12.205l-3.103-3.1c-1.618-1.621-3.815-2.527-6.108-2.527c-2.291,0-4.481,0.911-6.104,2.527l-2.9,2.897
		c-2.068-1.101-4.246-2.016-6.522-2.717v-4.083c0-4.769-3.865-8.63-8.633-8.63H381.8c-4.769,0-8.634,3.862-8.634,8.63v4.083
		c-2.274,0.693-4.456,1.608-6.523,2.717l-2.893-2.897c-3.372-3.373-8.839-3.373-12.213,0l-3.097,3.1
		c-3.369,3.365-3.369,8.838,0,12.205l2.897,2.897c-1.1,2.072-2.019,4.25-2.719,6.524h-4.075c-4.768,0-8.633,3.862-8.633,8.633v4.379
		c0,4.77,3.863,8.635,8.633,8.635h4.079c0.697,2.275,1.612,4.455,2.715,6.521l-2.897,2.9c-3.367,3.364-3.367,8.836-0.002,12.205
		l3.103,3.104c1.618,1.611,3.815,2.525,6.104,2.525h0.002c2.29,0,4.482-0.914,6.104-2.525l2.899-2.901
		c2.065,1.104,4.247,2.021,6.522,2.723v4.082c0,4.766,3.861,8.631,8.631,8.631h4.387c4.767,0,8.629-3.865,8.629-8.631v-4.082
		c2.278-0.701,4.455-1.611,6.521-2.723l2.904,2.901c1.614,1.619,3.813,2.525,6.105,2.525c2.29,0,4.48-0.914,6.104-2.525l3.099-3.104
		c3.37-3.369,3.367-8.832,0-12.201l-2.9-2.896c1.102-2.074,2.018-4.254,2.721-6.525h4.082c4.768,0,8.631-3.869,8.631-8.633v-4.38
		C432.086-113.955,428.221-117.82,423.455-117.82 M384.002-87.271c-10.877,0-19.731-8.845-19.731-19.729
		c0-10.877,8.854-19.728,19.731-19.728c10.88,0,19.729,8.851,19.729,19.728C403.731-96.121,394.883-87.271,384.002-87.271"/>
</g>
<circle fill="#0099FF" stroke="#FFFFFF" stroke-width="3" cx="896" cy="-107" r="78.063"/>
<path fill="#FFFFFF" d="M923.407-149.207c0-3.58-2.912-6.492-6.493-6.492h-41.832c-3.579,0-6.492,2.914-6.492,6.495l0.003,84.414
	c0,3.578,2.911,6.488,6.489,6.488h0.003h41.833l0,0c1.733,0,3.363-0.675,4.591-1.9c1.225-1.228,1.901-2.858,1.901-4.594
	L923.407-149.207z M895.999-62.294c-0.978,0-1.894-0.383-2.584-1.072c-0.691-0.688-1.071-1.606-1.071-2.588
	c0-0.976,0.38-1.894,1.071-2.584c0.691-0.688,1.61-1.069,2.586-1.069c2.019,0,3.656,1.641,3.656,3.655s-1.64,3.658-3.656,3.658
	v0.715v-0.715H895.999z M919.283-73.436l-46.567,0.002v-74.824h46.567V-73.436z"/>
<rect x="872" y="-147.128" fill="none" stroke="#FFFFFF" stroke-width="3" stroke-linecap="round" stroke-linejoin="round" stroke-miterlimit="10" width="48" height="76.257"/>
<circle fill="#0099FF" cx="895.998" cy="-107" r="3.073"/>
<path fill="none" stroke="#0099FF" stroke-width="0.5" stroke-linecap="round" stroke-linejoin="round" stroke-miterlimit="10" d="
	M890.053-106.307h11.896c0.383,0,0.69-0.311,0.69-0.693c0-0.38-0.309-0.693-0.69-0.693h-11.896c-0.386,0-0.692,0.313-0.692,0.693
	C889.359-106.615,889.667-106.307,890.053-106.307z"/>
<g>
	<g>
		<g>
			<path fill="#FFFFFF" d="M887.563-97.598c-2.39,0.385-1.786,3.259-1.786,5.047c0,1.582-0.522,4.73,1.923,4.73
				c2.444,0,1.923-3.148,1.923-4.73c0-1.788,0.603-4.662-1.79-5.047c-0.636-0.104-0.909,0.869-0.27,0.972
				c1.729,0.278,1.049,5.508,1.049,6.827c0,1.289-1.824,0.337-1.824-0.383c0-0.312,0-0.62,0-0.928c0-0.48,0-0.961,0-1.441
				c0-1.098-0.521-3.822,1.048-4.075C888.475-96.729,888.199-97.701,887.563-97.598L887.563-97.598z"/>
		</g>
	</g>
	<g>
		<g>
			<path fill="#FFFFFF" d="M906.278-95.828c-0.442-2.732-3.827-1.971-3.827,0.573c0,1.838,0,3.674,0,5.513
				c0,2.615,3.842,2.372,3.842-0.211c0-1.914,0-3.829,0-5.742c0-0.652-1.009-0.652-1.009,0c0,1.965,0,3.93,0,5.896
				c0,1.289-1.822,0.337-1.822-0.383c0-0.312,0-0.62,0-0.928c0-0.48,0-0.961,0-1.441c0-0.486,0-0.973,0-1.46c0-0.32,0-0.64,0-0.96
				c0-0.17,0-0.344,0-0.514c-0.052-0.72,0.563-0.744,1.841-0.078C905.407-94.92,906.381-95.191,906.278-95.828z"/>
		</g>
	</g>
	<g>
		<g>
			<path fill="#FFFFFF" d="M889.693-97.369c-0.024,0-0.047,0-0.071,0c-0.276,0-0.504,0.229-0.504,0.504c0,2.59,0,5.18,0,7.768
				c0,0.773-0.153,1.834,0.263,2.543c0.462,0.787,2.35,1.414,2.35,0.671c0,1.194-0.5,5.629,2.056,4.938
				c1.092-0.296,1.788-0.846,1.788-2.082c0-0.685,0-1.369,0-2.053c0-0.994-0.505-0.52,0.177-0.52c0.35,0,0.702,0,1.053,0
				c-0.303-0.422-0.404-0.381-0.306,0.121c0,0.67,0,1.336,0,2.006c0,0.8,0.088,2.066,1.072,2.334
				c3.024,0.816,2.771-2.286,2.771-4.34c0-0.556-0.313-0.121,0.692-0.121c0.783,0,1.081-0.354,1.578-0.853
				c0.482-0.479,0.343-1.586,0.343-2.204c0-2.736,0-5.472,0-8.209c0-0.275-0.229-0.504-0.508-0.504
				C898.196-97.369,893.943-97.369,889.693-97.369c-0.651,0-0.651,1.012,0,1.012c4.132,0,8.263,0,12.396,0
				c0.553,0-0.146-0.865-0.146,0.242c0,1.207,0,2.412,0,3.617c0,2.126,0.966,5.889-2.106,5.889c-0.275,0-0.503,0.229-0.503,0.504
				c0,1.024,0,2.053,0,3.078c-1.367,0.607-1.976,0.459-1.826-0.445c0-0.387,0-0.773,0-1.16c0-0.492,0-0.98,0-1.473
				c0-0.273-0.229-0.506-0.506-0.506c-0.644,0-1.29,0-1.934,0c-0.274,0-0.504,0.231-0.504,0.506c0,1.024,0,2.051,0,3.075
				c-1.364,0.61-1.976,0.462-1.825-0.444c0-0.385,0-0.771,0-1.162c0-0.488,0-0.979,0-1.469c0-0.275-0.229-0.506-0.504-0.506
				c-2.841,0-2.107-2.687-2.107-4.675c0-1.17,0-2.341,0-3.511c0-0.438,0-0.879,0-1.318c0-1.068,0.133-0.244-0.435-0.244
				C890.346-96.357,890.346-97.369,889.693-97.369z"/>
		</g>
	</g>
	<g>
		<g>
			<path fill="#FFFFFF" d="M902.94-97.361c0-1.879-0.743-3.357-2.087-4.66c-0.947-0.92-1.323,0.061-0.576-1.32
				c0.303-0.561,0.526-0.797,0.342-1.414c-0.074-0.258-0.353-0.43-0.619-0.35c-0.625,0.184-0.693,0.471-1.005,1.041
				c-0.133,0.25-0.27,0.498-0.406,0.748c-0.12,0.383-0.213,0.344-0.272-0.109c-0.721-0.268-1.511-0.303-2.27-0.342
				c-0.515-0.026-1.087,0.088-1.593,0.168c-1.008,0.154-0.655,0.869-1.166-0.069c-0.358-0.661-0.48-1.22-1.216-1.437
				c-0.269-0.08-0.546,0.092-0.621,0.351c-0.146,0.487-0.083,0.63,0.151,1.062c0.198,0.364,0.396,0.729,0.595,1.094
				c0.165,0.299-0.235,0.029-0.818,0.467c-1.464,1.104-2.281,2.966-2.246,4.773c0.008,0.274,0.228,0.504,0.508,0.504
				c4.266,0,8.53,0,12.795,0c0.651,0,0.651-1.01,0-1.01c-2.466,0-4.936,0-7.402,0c-1.513,0-3.025,0-4.537,0
				c-0.276,0-0.553,0-0.829,0c0.157,0.104,0.317,0.207,0.476,0.311c0.004-0.812,0.204-1.574,0.601-2.285
				c0.479-1.004,1.42-1.672,2.341-2.217c0.243-0.145,0.314-0.449,0.184-0.691c-0.311-0.572-0.619-1.143-0.93-1.714
				c-0.155,0.097-0.31,0.194-0.467,0.29c0.113,0.208,0.226,0.416,0.336,0.623c0.202,0.372,0.404,0.742,0.604,1.113
				c0.103,0.185,0.367,0.308,0.571,0.23c1.794-0.671,3.521-0.672,5.316-0.008c0.205,0.076,0.469-0.047,0.572-0.232
				c0.313-0.576,0.622-1.15,0.934-1.727c-0.152-0.098-0.31-0.193-0.465-0.292c-0.109,0.204-0.22,0.405-0.329,0.612
				c-0.198,0.363-0.397,0.728-0.594,1.095c-0.133,0.241-0.062,0.543,0.181,0.688c1.795,1.059,2.938,2.584,2.938,4.707
				C901.933-96.708,902.94-96.708,902.94-97.361z"/>
			<path fill="#FFFFFF" d="M898.951-100.326c0.129,0.008,0.129,0.184,0,0.193C898.825-100.122,898.826-100.318,898.951-100.326
				c0.646-0.048,0.652-1.059,0-1.011c-0.633,0.045-1.06,0.473-1.105,1.106c-0.047,0.631,0.543,1.064,1.105,1.107
				c0.632,0.045,1.067-0.544,1.109-1.107c0.047-0.631-0.545-1.064-1.109-1.106C898.304-101.385,898.309-100.374,898.951-100.326
				L898.951-100.326z"/>
			<path fill="#FFFFFF" d="M893.115-100.326c0.13,0.008,0.13,0.184,0,0.193C892.99-100.125,892.992-100.318,893.115-100.326
				c0.647-0.048,0.652-1.059,0-1.011c-0.629,0.045-1.06,0.473-1.104,1.106c-0.047,0.631,0.542,1.064,1.104,1.107
				c0.633,0.045,1.067-0.544,1.109-1.107c0.047-0.631-0.544-1.064-1.109-1.106C892.468-101.385,892.473-100.374,893.115-100.326
				L893.115-100.326z"/>
		</g>
	</g>
</g>
<g>
	<g>
		<path fill="#FFFFFF" d="M899.387-131.937c0.791-0.971,1.264-2.195,1.291-3.455c0.006-0.341-0.328-0.557-0.641-0.486
			c-2.427,0.553-4.197,2.646-4.441,5.105c-0.035,0.36,0.347,0.529,0.638,0.485C897.423-130.463,898.564-131.074,899.387-131.937
			c0.448-0.472-0.267-1.188-0.713-0.715c-0.716,0.751-1.682,1.24-2.707,1.391c0.212,0.163,0.425,0.323,0.637,0.488
			c0.2-2.009,1.737-3.687,3.701-4.132c-0.212-0.165-0.426-0.325-0.638-0.488c-0.021,0.98-0.38,1.986-0.993,2.741
			C898.266-132.153,898.974-131.434,899.387-131.937z"/>
	</g>
</g>
<g>
	<g>
		<path fill="#FFFFFF" d="M892.952-113.124c1.34-0.162,2.728-0.924,4.065-0.696c0.995,0.166,1.896,0.87,2.964,0.68
			c2.595-0.463,4.06-3.271,5.028-5.45c0.115-0.252,0.077-0.537-0.178-0.688c-3.107-1.849-3.362-5.547-0.516-7.858
			c0.216-0.177,0.176-0.53,0-0.713c-2.268-2.361-4.668-2.584-7.572-1.396c-0.702,0.285-2.914-0.766-3.788-0.823
			c-1.201-0.08-2.687,0.515-3.563,1.311c-2.57,2.333-2.863,5.54-2.089,8.775c0.613,2.551,2.615,6.405,5.515,6.842
			c0.637,0.098,0.909-0.877,0.267-0.976c-2.653-0.397-4.096-3.94-4.809-6.134c-1.093-3.375-0.042-7.376,3.498-8.642
			c1.833-0.656,2.989,0.701,4.624,0.701c2.283,0,3.074-1.52,5.796-0.19c1.465,0.716-0.754,2.891-0.868,4.025
			c-0.141,1.391-0.073,2.903,0.838,4.063c0.404,0.516,0.782,1.064,1.36,1.409c1.259,0.745-2.255,4.067-2.711,4.407
			c-1.38,1.031-3.031-0.463-4.415-0.463c-1.135,0-2.335,0.67-3.446,0.804C892.314-114.057,892.308-113.044,892.952-113.124z"/>
	</g>
</g>
<g>
	<path fill="#0099FF" stroke="#FFFFFF" stroke-width="3" d="M640-185.062c43.109,0,78.063,34.95,78.063,78.063
		c0,43.115-34.952,78.063-78.063,78.063c-43.113,0-78.063-34.947-78.063-78.063C561.938-150.113,596.887-185.062,640-185.062z"/>
	<g>
		<polyline fill="none" stroke="#FFFFFF" stroke-width="3" points="597.607,-63.098 597.607,-94.447 618.186,-94.447 		"/>
		<path fill="none" stroke="#FFFFFF" stroke-width="3" d="M618.186-63.098"/>
		<polyline fill="none" stroke="#FFFFFF" stroke-width="3" points="621.438,-63.098 621.438,-107.724 642.021,-107.724 		"/>
		<path fill="none" stroke="#FFFFFF" stroke-width="3" d="M642.021-63.098"/>
		<polyline fill="none" stroke="#FFFFFF" stroke-width="3" points="645.912,-63.098 645.912,-119.681 666.491,-119.681 		"/>
		<path fill="none" stroke="#FFFFFF" stroke-width="3" d="M666.491-63.098"/>
		<polyline fill="none" stroke="#FFFFFF" stroke-width="3" points="670.336,-63.098 670.336,-133.389 690.92,-133.389 		"/>
		<path fill="none" stroke="#FFFFFF" stroke-width="3" d="M589.076-98.244c0,0,64.017-19.263,93.908-52.657"/>
	</g>
</g>
<path fill="#939393" stroke="#FFFFFF" stroke-width="3" d="M206.062,89.998c0,43.117-34.947,78.066-78.062,78.066
	s-78.063-34.949-78.063-78.066c0-43.113,34.947-78.063,78.063-78.063S206.062,46.885,206.062,89.998"/>
<path fill="#FFFFFF" d="M154.662,58.893H98.656c-2.579,0-4.666,2.09-4.666,4.666v4.668c0,2.578,2.086,4.666,4.666,4.666h56.006
	c2.575,0,4.666-2.088,4.666-4.666v-4.668C159.328,60.98,157.239,58.893,154.662,58.893"/>
<path fill="#FFFFFF" d="M170.463,78.529h-47.432c-2.184,0-3.953,2.093-3.953,4.669v4.666c0,2.577,1.769,4.669,3.953,4.669h47.432
	c2.18,0,3.951-2.094,3.951-4.669v-4.666C174.412,80.622,172.646,78.529,170.463,78.529"/>
<text transform="matrix(1 0 0 1 80.9194 72.4834)" fill="#FFFFFF" font-family="'MyriadPro-Bold'" font-size="16.7258">1</text>
<text transform="matrix(1 0 0 1 106.3579 91.6504)" fill="#FFFFFF" font-family="'MyriadPro-Bold'" font-size="16.7258">2</text>
<text transform="matrix(1 0 0 1 77.4351 110.8105)" fill="#FFFFFF" font-family="'MyriadPro-Bold'" font-size="16.7258">3</text>
<path fill="#FFFFFF" d="M184.105,99.836H97.437c-2.579,0-4.666,2.086-4.666,4.666v4.67c0,2.576,2.086,4.666,4.666,4.666h86.669
	c2.574,0,4.666-2.09,4.666-4.666v-4.67C188.771,101.926,186.684,99.836,184.105,99.836"/>
<path fill="#939393" stroke="#FFFFFF" stroke-width="3" d="M462.063,90c0,43.115-34.945,78.063-78.063,78.063
	c-43.113,0-78.063-34.944-78.063-78.063c0-43.113,34.95-78.063,78.063-78.063C427.116,11.938,462.063,46.887,462.063,90"/>
<path fill="#FFFFFF" stroke="#939393" stroke-width="3" d="M423.455,79.18h-4.082c-0.696-2.279-1.613-4.457-2.721-6.525l2.9-2.9
	c3.366-3.367,3.37-8.833,0-12.205l-3.103-3.1c-1.618-1.621-3.815-2.527-6.108-2.527c-2.291,0-4.481,0.911-6.104,2.527l-2.9,2.896
	c-2.068-1.101-4.246-2.016-6.522-2.717v-4.083c0-4.769-3.865-8.63-8.633-8.63H381.8c-4.769,0-8.634,3.861-8.634,8.63v4.083
	c-2.274,0.693-4.456,1.607-6.523,2.717l-2.893-2.896c-3.372-3.373-8.839-3.373-12.213,0l-3.097,3.1
	c-3.369,3.365-3.369,8.838,0,12.205l2.897,2.896c-1.1,2.072-2.019,4.25-2.719,6.524h-4.075c-4.768,0-8.633,3.862-8.633,8.634v4.379
	c0,4.77,3.863,8.635,8.633,8.635h4.079c0.697,2.275,1.612,4.455,2.715,6.521l-2.897,2.9c-3.367,3.364-3.367,8.836-0.002,12.205
	l3.103,3.104c1.618,1.611,3.815,2.525,6.104,2.525h0.002c2.29,0,4.482-0.914,6.104-2.525l2.899-2.901
	c2.065,1.104,4.247,2.021,6.522,2.723v4.082c0,4.766,3.861,8.631,8.631,8.631h4.387c4.767,0,8.629-3.865,8.629-8.631v-4.082
	c2.278-0.701,4.455-1.611,6.521-2.723l2.904,2.901c1.614,1.619,3.813,2.525,6.105,2.525c2.29,0,4.48-0.914,6.104-2.525l3.099-3.104
	c3.37-3.369,3.367-8.832,0-12.201l-2.9-2.896c1.102-2.074,2.018-4.254,2.721-6.525h4.082c4.768,0,8.631-3.869,8.631-8.633v-4.381
	C432.086,83.045,428.221,79.18,423.455,79.18 M384.002,109.729c-10.877,0-19.731-8.845-19.731-19.729
	c0-10.877,8.854-19.729,19.731-19.729c10.88,0,19.729,8.852,19.729,19.729C403.731,100.879,394.883,109.729,384.002,109.729"/>
<circle fill="#939393" stroke="#FFFFFF" stroke-width="3" cx="896" cy="90" r="78.063"/>
<path fill="#FFFFFF" d="M923.407,47.793c0-3.58-2.912-6.492-6.493-6.492h-41.832c-3.579,0-6.492,2.914-6.492,6.495l0.003,84.414
	c0,3.578,2.911,6.488,6.489,6.488h0.003h41.833l0,0c1.733,0,3.363-0.675,4.591-1.9c1.225-1.228,1.901-2.858,1.901-4.594
	L923.407,47.793z M895.999,134.706c-0.978,0-1.894-0.383-2.584-1.072c-0.691-0.688-1.071-1.606-1.071-2.588
	c0-0.976,0.38-1.894,1.071-2.584c0.691-0.688,1.61-1.069,2.586-1.069c2.019,0,3.656,1.641,3.656,3.655s-1.64,3.658-3.656,3.658
	v0.715v-0.715H895.999z M919.283,123.564l-46.567,0.002V48.742h46.567V123.564z"/>
<rect x="872" y="49.872" fill="none" stroke="#FFFFFF" stroke-width="3" stroke-linecap="round" stroke-linejoin="round" stroke-miterlimit="10" width="48" height="76.257"/>
<g>
	<g>
		<g>
			<path fill="#FFFFFF" d="M887.563,99.402c-2.39,0.385-1.786,3.259-1.786,5.047c0,1.582-0.522,4.73,1.923,4.73
				c2.444,0,1.923-3.148,1.923-4.73c0-1.788,0.603-4.662-1.79-5.047c-0.636-0.104-0.909,0.869-0.27,0.972
				c1.729,0.278,1.049,5.508,1.049,6.827c0,1.289-1.824,0.337-1.824-0.383c0-0.312,0-0.62,0-0.928c0-0.48,0-0.961,0-1.441
				c0-1.098-0.521-3.822,1.048-4.075C888.475,100.271,888.199,99.299,887.563,99.402L887.563,99.402z"/>
		</g>
	</g>
	<g>
		<g>
			<path fill="#FFFFFF" d="M906.278,101.172c-0.442-2.732-3.827-1.971-3.827,0.573c0,1.838,0,3.674,0,5.513
				c0,2.615,3.842,2.372,3.842-0.211c0-1.914,0-3.829,0-5.742c0-0.652-1.009-0.652-1.009,0c0,1.965,0,3.93,0,5.896
				c0,1.289-1.822,0.337-1.822-0.383c0-0.312,0-0.62,0-0.928c0-0.48,0-0.961,0-1.441c0-0.486,0-0.973,0-1.46c0-0.32,0-0.64,0-0.96
				c0-0.17,0-0.344,0-0.514c-0.052-0.72,0.563-0.744,1.841-0.078C905.407,102.08,906.381,101.809,906.278,101.172z"/>
		</g>
	</g>
	<g>
		<g>
			<path fill="#FFFFFF" d="M889.693,99.631c-0.024,0-0.047,0-0.071,0c-0.276,0-0.504,0.229-0.504,0.504c0,2.59,0,5.18,0,7.768
				c0,0.773-0.153,1.834,0.263,2.543c0.462,0.787,2.35,1.414,2.35,0.671c0,1.194-0.5,5.629,2.056,4.938
				c1.092-0.296,1.788-0.846,1.788-2.082c0-0.685,0-1.369,0-2.053c0-0.994-0.505-0.52,0.177-0.52c0.35,0,0.702,0,1.053,0
				c-0.303-0.422-0.404-0.381-0.306,0.121c0,0.67,0,1.336,0,2.006c0,0.8,0.088,2.066,1.072,2.334
				c3.024,0.816,2.771-2.286,2.771-4.34c0-0.556-0.313-0.121,0.692-0.121c0.783,0,1.081-0.354,1.578-0.853
				c0.482-0.479,0.343-1.586,0.343-2.204c0-2.736,0-5.472,0-8.209c0-0.275-0.229-0.504-0.508-0.504
				C898.196,99.631,893.943,99.631,889.693,99.631c-0.651,0-0.651,1.012,0,1.012c4.132,0,8.263,0,12.396,0
				c0.553,0-0.146-0.865-0.146,0.242c0,1.207,0,2.412,0,3.617c0,2.126,0.966,5.889-2.106,5.889c-0.275,0-0.503,0.229-0.503,0.504
				c0,1.024,0,2.053,0,3.078c-1.367,0.607-1.976,0.459-1.826-0.445c0-0.387,0-0.773,0-1.16c0-0.492,0-0.98,0-1.473
				c0-0.273-0.229-0.506-0.506-0.506c-0.644,0-1.29,0-1.934,0c-0.274,0-0.504,0.231-0.504,0.506c0,1.024,0,2.051,0,3.075
				c-1.364,0.61-1.976,0.462-1.825-0.444c0-0.385,0-0.771,0-1.162c0-0.488,0-0.979,0-1.469c0-0.275-0.229-0.506-0.504-0.506
				c-2.841,0-2.107-2.687-2.107-4.675c0-1.17,0-2.341,0-3.511c0-0.438,0-0.879,0-1.318c0-1.068,0.133-0.244-0.435-0.244
				C890.346,100.643,890.346,99.631,889.693,99.631z"/>
		</g>
	</g>
	<g>
		<g>
			<path fill="#FFFFFF" d="M902.94,99.639c0-1.879-0.743-3.357-2.087-4.66c-0.947-0.92-1.323,0.061-0.576-1.32
				c0.303-0.561,0.526-0.797,0.342-1.414c-0.074-0.258-0.353-0.43-0.619-0.35c-0.625,0.184-0.693,0.471-1.005,1.041
				c-0.133,0.25-0.27,0.498-0.406,0.748c-0.12,0.383-0.213,0.344-0.272-0.109c-0.721-0.268-1.511-0.303-2.27-0.342
				c-0.515-0.026-1.087,0.088-1.593,0.168c-1.008,0.154-0.655,0.869-1.166-0.069c-0.358-0.661-0.48-1.22-1.216-1.437
				c-0.269-0.08-0.546,0.092-0.621,0.351c-0.146,0.487-0.083,0.63,0.151,1.062c0.198,0.364,0.396,0.729,0.595,1.094
				c0.165,0.299-0.235,0.029-0.818,0.467c-1.464,1.104-2.281,2.966-2.246,4.773c0.008,0.274,0.228,0.504,0.508,0.504
				c4.266,0,8.53,0,12.795,0c0.651,0,0.651-1.01,0-1.01c-2.466,0-4.936,0-7.402,0c-1.513,0-3.025,0-4.537,0
				c-0.276,0-0.553,0-0.829,0c0.157,0.104,0.317,0.207,0.476,0.311c0.004-0.812,0.204-1.574,0.601-2.285
				c0.479-1.004,1.42-1.672,2.341-2.217c0.243-0.145,0.314-0.449,0.184-0.691c-0.311-0.572-0.619-1.143-0.93-1.714
				c-0.155,0.097-0.31,0.194-0.467,0.29c0.113,0.208,0.226,0.416,0.336,0.623c0.202,0.372,0.404,0.742,0.604,1.113
				c0.103,0.185,0.367,0.308,0.571,0.23c1.794-0.671,3.521-0.672,5.316-0.008c0.205,0.076,0.469-0.047,0.572-0.232
				c0.313-0.576,0.622-1.15,0.934-1.727c-0.152-0.098-0.31-0.193-0.465-0.292c-0.109,0.204-0.22,0.405-0.329,0.612
				c-0.198,0.363-0.397,0.728-0.594,1.095c-0.133,0.241-0.062,0.543,0.181,0.688c1.795,1.059,2.938,2.584,2.938,4.707
				C901.933,100.292,902.94,100.292,902.94,99.639z"/>
			<path fill="#FFFFFF" d="M898.951,96.674c0.129,0.008,0.129,0.184,0,0.193C898.825,96.878,898.826,96.682,898.951,96.674
				c0.646-0.048,0.652-1.059,0-1.011c-0.633,0.045-1.06,0.473-1.105,1.106c-0.047,0.631,0.543,1.064,1.105,1.107
				c0.632,0.045,1.067-0.544,1.109-1.107c0.047-0.631-0.545-1.064-1.109-1.106C898.304,95.615,898.309,96.626,898.951,96.674
				L898.951,96.674z"/>
			<path fill="#FFFFFF" d="M893.115,96.674c0.13,0.008,0.13,0.184,0,0.193C892.99,96.875,892.992,96.682,893.115,96.674
				c0.647-0.048,0.652-1.059,0-1.011c-0.629,0.045-1.06,0.473-1.104,1.106c-0.047,0.631,0.542,1.064,1.104,1.107
				c0.633,0.045,1.067-0.544,1.109-1.107c0.047-0.631-0.544-1.064-1.109-1.106C892.468,95.615,892.473,96.626,893.115,96.674
				L893.115,96.674z"/>
		</g>
	</g>
</g>
<g>
	<g>
		<path fill="#FFFFFF" d="M899.387,65.063c0.791-0.971,1.264-2.194,1.291-3.455c0.006-0.34-0.328-0.557-0.641-0.485
			c-2.427,0.553-4.197,2.646-4.441,5.104c-0.035,0.36,0.347,0.529,0.638,0.485C897.423,66.537,898.564,65.926,899.387,65.063
			c0.448-0.472-0.267-1.188-0.713-0.715c-0.716,0.752-1.682,1.24-2.707,1.392c0.212,0.163,0.425,0.323,0.637,0.487
			c0.2-2.009,1.737-3.687,3.701-4.131c-0.212-0.166-0.426-0.326-0.638-0.488c-0.021,0.979-0.38,1.985-0.993,2.74
			C898.266,64.848,898.974,65.566,899.387,65.063z"/>
	</g>
</g>
<g>
	<g>
		<path fill="#FFFFFF" d="M892.952,83.876c1.34-0.162,2.728-0.924,4.065-0.696c0.995,0.166,1.896,0.87,2.964,0.68
			c2.595-0.463,4.06-3.271,5.028-5.45c0.115-0.252,0.077-0.537-0.178-0.688c-3.107-1.849-3.362-5.547-0.516-7.857
			c0.216-0.178,0.176-0.53,0-0.713c-2.268-2.361-4.668-2.584-7.572-1.396c-0.702,0.285-2.914-0.766-3.788-0.822
			c-1.201-0.08-2.687,0.514-3.563,1.311c-2.57,2.333-2.863,5.54-2.089,8.775c0.613,2.551,2.615,6.405,5.515,6.842
			c0.637,0.098,0.909-0.877,0.267-0.976c-2.653-0.397-4.096-3.94-4.809-6.134c-1.093-3.375-0.042-7.376,3.498-8.643
			c1.833-0.655,2.989,0.701,4.624,0.701c2.283,0,3.074-1.52,5.796-0.189c1.465,0.716-0.754,2.891-0.868,4.025
			c-0.141,1.391-0.073,2.902,0.838,4.063c0.404,0.516,0.782,1.064,1.36,1.409c1.259,0.745-2.255,4.067-2.711,4.407
			c-1.38,1.031-3.031-0.463-4.415-0.463c-1.135,0-2.335,0.67-3.446,0.804C892.314,82.943,892.308,83.956,892.952,83.876z"/>
	</g>
</g>
<path fill="#939393" stroke="#FFFFFF" stroke-width="3" d="M640,11.938c43.109,0,78.063,34.951,78.063,78.063
	c0,43.115-34.952,78.063-78.063,78.063c-43.113,0-78.063-34.947-78.063-78.063C561.938,46.887,596.887,11.938,640,11.938z"/>
<g>
	<polyline fill="none" stroke="#FFFFFF" stroke-width="3" points="597.607,133.902 597.607,102.553 618.186,102.553 	"/>
	<path fill="none" stroke="#FFFFFF" stroke-width="3" d="M618.186,133.902"/>
	<polyline fill="none" stroke="#FFFFFF" stroke-width="3" points="621.438,133.902 621.438,89.275 642.021,89.275 	"/>
	<path fill="none" stroke="#FFFFFF" stroke-width="3" d="M642.021,133.902"/>
	<polyline fill="none" stroke="#FFFFFF" stroke-width="3" points="645.912,133.902 645.912,77.318 666.491,77.318 	"/>
	<path fill="none" stroke="#FFFFFF" stroke-width="3" d="M666.491,133.902"/>
	<polyline fill="none" stroke="#FFFFFF" stroke-width="3" points="670.336,133.902 670.336,63.611 690.92,63.611 	"/>
	<path fill="none" stroke="#FFFFFF" stroke-width="3" d="M589.076,98.756c0,0,64.017-19.263,93.908-52.656"/>
</g>
</svg>
