<?xml version="1.0" encoding="utf-8"?>
<!-- Generator: Adobe Illustrator 14.0.0, SVG Export Plug-In . SVG Version: 6.00 Build 43363)  -->
<!DOCTYPE svg PUBLIC "-//W3C//DTD SVG 1.1//EN" "http://www.w3.org/Graphics/SVG/1.1/DTD/svg11.dtd">
<svg version="1.1" id="Capa_1" xmlns="http://www.w3.org/2000/svg" xmlns:xlink="http://www.w3.org/1999/xlink" x="0px" y="0px"
	 width="100px" height="100px" viewBox="0 0 100 100" enable-background="new 0 0 100 100" xml:space="preserve">
<g id="boton_menu">
	<g>
		<path fill="#FFFFFF" d="M100,12.001C100,18.629,98.643,24,96.971,24H3.034C1.356,24,0,18.629,0,12.001l0,0
			C0,5.376,1.356,0,3.034,0h93.937C98.643,0,100,5.376,100,12.001L100,12.001z"/>
		<path fill="#FFFFFF" d="M100,50.002C100,56.629,98.643,62,96.971,62H3.034C1.356,62,0,56.629,0,50.002l0,0
			C0,43.376,1.356,38,3.034,38h93.937C98.643,38,100,43.376,100,50.002L100,50.002z"/>
		<path fill="#FFFFFF" d="M100,88.002C100,94.629,98.643,100,96.971,100H3.034C1.356,100,0,94.629,0,88.002l0,0
			c0-6.625,1.356-12.001,3.033-12.001h93.938C98.643,76.001,100,81.377,100,88.002L100,88.002z"/>
	</g>
</g>
<g id="boton_redes_sociales" display="none">
	<g id="boton_mensaje" display="inline">
		<g>
			<path fill="#545252" d="M49.577,55.041c-6.775,0.004-13.507-5.069-18.33-9.827v16.132c0,2.311,2.213,4.186,4.944,4.186h27.786
				c2.729,0,4.941-1.875,4.941-4.186V44.073C64.418,49.123,57.461,55.045,49.577,55.041z"/>
			<path fill="#545252" d="M50.341,52.199c-9.604,0.004-19.094-13.541-19.094-13.541c0-2.314,2.213-4.189,4.944-4.189h27.786
				c2.729,0,4.941,1.875,4.941,4.189C68.919,38.658,60.68,52.203,50.341,52.199z"/>
		</g>
		<circle fill="none" stroke="#545252" stroke-width="8.482" cx="50.083" cy="50.001" r="44.24"/>
	</g>
	<g id="boton_twiter" display="inline">
		<path fill="#545252" d="M68.547,40.535c0.016,0.405,0.021,0.819,0.021,1.236c0,12.583-9.575,27.083-27.093,27.083
			c-5.377,0-10.383-1.565-14.599-4.274c0.75,0.088,1.503,0.14,2.272,0.14c4.465,0,8.566-1.521,11.828-4.076
			c-4.165-0.082-7.68-2.832-8.892-6.619c0.577,0.117,1.171,0.172,1.79,0.172c0.862,0,1.709-0.111,2.507-0.332
			c-4.355-0.869-7.643-4.719-7.643-9.333c0-0.042,0-0.081,0.01-0.124c1.276,0.718,2.751,1.142,4.314,1.187
			c-2.557-1.698-4.242-4.619-4.242-7.922c0-1.741,0.472-3.376,1.288-4.785c4.693,5.762,11.716,9.554,19.624,9.951
			c-0.163-0.702-0.243-1.422-0.243-2.174c0-5.254,4.266-9.518,9.521-9.518c2.742,0,5.217,1.155,6.948,3
			c2.175-0.423,4.216-1.212,6.056-2.309c-0.716,2.228-2.222,4.093-4.191,5.271c1.929-0.226,3.768-0.738,5.468-1.495
			C72.021,37.515,70.4,39.189,68.547,40.535L68.547,40.535z"/>
		<circle fill="none" stroke="#545252" stroke-width="8.482" cx="50.083" cy="49.999" r="44.24"/>
	</g>
	<g id="boton_face" display="inline">
		<path fill="#545252" stroke="#545252" stroke-width="2.5446" d="M45.814,47.431H41.81c-1.047-0.845-0.953-4.436,0-5.389h4.005
			V38.54c0-5.556,3.165-7.392,8.261-7.392c1.427,0,4.244,0.169,4.244,0.169c1.06,0.92,1.045,4.675,0,5.614
			c0,0-1.037-0.056-1.557-0.056c-2.225,0-3.037,0.685-3.037,2.462v2.706h4.594c1.047,0.848,0.953,4.437,0,5.389h-4.594V67.75
			c-1.242,1.535-6.514,1.396-7.912,0L45.814,47.431L45.814,47.431z"/>
		<circle fill="none" stroke="#545252" stroke-width="8.482" cx="50.083" cy="49.999" r="44.24"/>
	</g>
</g>
</svg>
