<?xml version="1.0" encoding="utf-8"?>
<!-- Generator: Adobe Illustrator 14.0.0, SVG Export Plug-In . SVG Version: 6.00 Build 43363)  -->
<!DOCTYPE svg PUBLIC "-//W3C//DTD SVG 1.1//EN" "http://www.w3.org/Graphics/SVG/1.1/DTD/svg11.dtd">
<svg version="1.1" id="Capa_1" xmlns="http://www.w3.org/2000/svg" xmlns:xlink="http://www.w3.org/1999/xlink" x="0px" y="0px"
	 width="418px" height="418px" viewBox="0 0 418 418" enable-background="new 0 0 418 418" xml:space="preserve">
<g>
	<polyline fill="none" stroke="#4B8EC7" stroke-width="2" points="-608.822,-263.231 -750.243,-194.81 -891.664,-263.231 	"/>
	<path fill="none" stroke="#4B8EC7" stroke-width="2" d="M-750.243-315.652"/>
	<path fill="none" stroke="#4B8EC7" stroke-width="2" d="M-750.243-339.652"/>
	<polyline fill="none" stroke="#4B8EC7" stroke-width="2" points="-608.822,-287.231 -750.243,-218.81 -891.664,-287.23 	"/>
	<polygon fill="none" stroke="#4B8EC7" stroke-width="2" points="-608.822,-310.231 -750.243,-241.81 -891.664,-310.23 
		-750.243,-362.652 	"/>
	<polyline fill="none" stroke="#4B8EC7" stroke-width="2" points="-945.243,-365.945 -945.243,-465.945 -845.243,-465.945 	"/>
	<polyline fill="none" stroke="#4B8EC7" stroke-width="2" points="-558.822,-183.802 -558.822,-83.802 -658.822,-83.802 	"/>
	<path fill="none" stroke="#4B8EC7" stroke-width="2" d="M-558.822-83.802"/>
</g>
<path fill="none" stroke="#4B8EC7" stroke-width="2" d="M-251.432-294.89"/>
<path fill="none" stroke="#4B8EC7" stroke-width="2" d="M-251.432-318.89"/>
<polyline fill="none" stroke="#4B8EC7" stroke-width="2" points="-446.432,-345.183 -446.432,-445.183 -346.432,-445.183 "/>
<polyline fill="none" stroke="#4B8EC7" stroke-width="2" points="-60.011,-163.04 -60.011,-63.04 -160.011,-63.04 "/>
<path fill="none" stroke="#4B8EC7" stroke-width="2" d="M-60.011-63.04"/>
<path fill="none" stroke="#4B8EC7" stroke-width="2" d="M-144.833-280.357c3.339,10.71,5.138,22.099,5.138,33.909
	c0,62.853-50.952,113.806-113.805,113.806s-113.805-50.953-113.805-113.806c0-62.853,50.952-113.805,113.805-113.805
	c22.756,0,43.954,6.679,61.737,18.184"/>
<line fill="none" stroke="#4B8EC7" stroke-width="2" x1="-305.29" y1="-243.522" x2="-253.501" y2="-189.493"/>
<path fill="none" stroke="#4B8EC7" stroke-width="2" d="M-253.501-189.493c0,0,49.006-109.875,131.639-170.76"/>
<g>
	<g>
		<polyline fill="none" stroke="#4B8EC7" stroke-width="2" points="15.79,-375.412 15.79,-475.412 115.79,-475.412 		"/>
		<polyline fill="none" stroke="#4B8EC7" stroke-width="2" points="402.211,-193.269 402.211,-93.269 302.211,-93.269 		"/>
		<path fill="none" stroke="#4B8EC7" stroke-width="2" d="M402.211-93.269"/>
	</g>
	<polyline fill="none" stroke="#4B8EC7" stroke-width="2" points="70.658,-184.389 70.658,-276.276 134.772,-276.276 	"/>
	<path fill="none" stroke="#4B8EC7" stroke-width="2" d="M134.772-184.389"/>
	<polyline fill="none" stroke="#4B8EC7" stroke-width="2" points="144.886,-184.389 144.886,-315.181 209,-315.181 	"/>
	<path fill="none" stroke="#4B8EC7" stroke-width="2" d="M209-184.389"/>
	<polyline fill="none" stroke="#4B8EC7" stroke-width="2" points="221.111,-184.389 221.111,-350.229 285.225,-350.229 	"/>
	<path fill="none" stroke="#4B8EC7" stroke-width="2" d="M285.225-184.389"/>
	<polyline fill="none" stroke="#4B8EC7" stroke-width="2" points="297.193,-184.389 297.193,-390.407 361.307,-390.407 	"/>
	<path fill="none" stroke="#4B8EC7" stroke-width="2" d="M361.307-184.389"/>
	<path fill="none" stroke="#4B8EC7" stroke-width="2" d="M44.099-287.398c0,0,199.397-56.465,292.485-154.345"/>
</g>
<g>
	<polyline fill="none" stroke="#4B8EC7" stroke-width="4" points="-973.373,211.503 -1165.339,304.381 -1357.307,211.503 	"/>
	<path fill="none" stroke="#4B8EC7" stroke-width="4" d="M-1165.339,140.347"/>
	<path fill="none" stroke="#4B8EC7" stroke-width="4" d="M-1165.339,107.769"/>
	<polyline fill="none" stroke="#4B8EC7" stroke-width="4" points="-973.373,178.925 -1165.339,271.802 -1357.307,178.927 	"/>
	<polygon fill="none" stroke="#4B8EC7" stroke-width="4" points="-973.373,147.705 -1165.339,240.581 -1357.307,147.706 
		-1165.339,76.548 	"/>
</g>
<path fill="none" stroke="#4B8EC7" stroke-width="4" d="M195.747,138.051"/>
<path fill="none" stroke="#4B8EC7" stroke-width="4" d="M195.747,105.826"/>
<path fill="none" stroke="#4B8EC7" stroke-width="4" d="M338.876,157.564c4.483,14.38,6.898,29.671,6.898,45.529
	c0,84.391-68.413,152.805-152.805,152.805S40.164,287.484,40.164,203.094c0-84.393,68.413-152.806,152.805-152.806
	c30.554,0,59.016,8.968,82.893,24.416"/>
<line fill="none" stroke="#4B8EC7" stroke-width="4" x1="123.433" y1="207.022" x2="192.969" y2="279.567"/>
<path fill="none" stroke="#4B8EC7" stroke-width="4" d="M192.969,279.567c0,0,65.8-147.529,176.75-229.279"/>
<polyline fill="none" stroke="#4B8EC7" stroke-width="4" points="-451.479,357.432 -451.479,253.226 -378.77,253.226 "/>
<path fill="none" stroke="#4B8EC7" stroke-width="4" d="M-378.77,357.432"/>
<polyline fill="none" stroke="#4B8EC7" stroke-width="4" points="-367.299,357.432 -367.299,209.105 -294.588,209.105 "/>
<path fill="none" stroke="#4B8EC7" stroke-width="4" d="M-294.588,357.432"/>
<polyline fill="none" stroke="#4B8EC7" stroke-width="4" points="-280.854,357.432 -280.854,169.357 -208.145,169.357 "/>
<path fill="none" stroke="#4B8EC7" stroke-width="4" d="M-208.145,357.432"/>
<polyline fill="none" stroke="#4B8EC7" stroke-width="4" points="-194.571,357.432 -194.571,123.792 -121.862,123.792 "/>
<path fill="none" stroke="#4B8EC7" stroke-width="4" d="M-121.862,357.432"/>
<path fill="none" stroke="#4B8EC7" stroke-width="4" d="M-481.6,240.612c0,0,226.13-64.035,331.701-175.039"/>
</svg>
