<?xml version="1.0" encoding="utf-8"?>
<!-- Generator: Adobe Illustrator 14.0.0, SVG Export Plug-In . SVG Version: 6.00 Build 43363)  -->
<!DOCTYPE svg PUBLIC "-//W3C//DTD SVG 1.1//EN" "http://www.w3.org/Graphics/SVG/1.1/DTD/svg11.dtd">
<svg version="1.1" id="Capa_1" xmlns="http://www.w3.org/2000/svg" xmlns:xlink="http://www.w3.org/1999/xlink" x="0px" y="0px"
	 width="418px" height="418px" viewBox="0 0 418 418" enable-background="new 0 0 418 418" xml:space="preserve">
<g>
	<polyline fill="none" stroke="#4B8EC7" stroke-width="2" points="-608.822,-263.231 -750.243,-194.81 -891.664,-263.231 	"/>
	<path fill="none" stroke="#4B8EC7" stroke-width="2" d="M-750.243-315.652"/>
	<path fill="none" stroke="#4B8EC7" stroke-width="2" d="M-750.243-339.652"/>
	<polyline fill="none" stroke="#4B8EC7" stroke-width="2" points="-608.822,-287.231 -750.243,-218.81 -891.664,-287.23 	"/>
	<polygon fill="none" stroke="#4B8EC7" stroke-width="2" points="-608.822,-310.231 -750.243,-241.81 -891.664,-310.23 
		-750.243,-362.652 	"/>
	<polyline fill="none" stroke="#4B8EC7" stroke-width="2" points="-945.243,-365.945 -945.243,-465.945 -845.243,-465.945 	"/>
	<polyline fill="none" stroke="#4B8EC7" stroke-width="2" points="-558.822,-183.802 -558.822,-83.802 -658.822,-83.802 	"/>
	<path fill="none" stroke="#4B8EC7" stroke-width="2" d="M-558.822-83.802"/>
</g>
<path fill="none" stroke="#4B8EC7" stroke-width="2" d="M-251.432-294.89"/>
<path fill="none" stroke="#4B8EC7" stroke-width="2" d="M-251.432-318.89"/>
<polyline fill="none" stroke="#4B8EC7" stroke-width="2" points="-446.432,-345.183 -446.432,-445.183 -346.432,-445.183 "/>
<polyline fill="none" stroke="#4B8EC7" stroke-width="2" points="-60.011,-163.04 -60.011,-63.04 -160.011,-63.04 "/>
<path fill="none" stroke="#4B8EC7" stroke-width="2" d="M-60.011-63.04"/>
<path fill="none" stroke="#4B8EC7" stroke-width="2" d="M-144.833-280.357c3.339,10.71,5.138,22.099,5.138,33.909
	c0,62.853-50.952,113.806-113.805,113.806s-113.805-50.953-113.805-113.806c0-62.853,50.952-113.805,113.805-113.805
	c22.756,0,43.954,6.679,61.737,18.184"/>
<line fill="none" stroke="#4B8EC7" stroke-width="2" x1="-305.29" y1="-243.522" x2="-253.501" y2="-189.493"/>
<path fill="none" stroke="#4B8EC7" stroke-width="2" d="M-253.501-189.493c0,0,49.006-109.875,131.639-170.76"/>
<g>
	<g>
		<polyline fill="none" stroke="#4B8EC7" stroke-width="2" points="15.79,-375.412 15.79,-475.412 115.79,-475.412 		"/>
		<polyline fill="none" stroke="#4B8EC7" stroke-width="2" points="402.211,-193.269 402.211,-93.269 302.211,-93.269 		"/>
		<path fill="none" stroke="#4B8EC7" stroke-width="2" d="M402.211-93.269"/>
	</g>
	<polyline fill="none" stroke="#4B8EC7" stroke-width="2" points="70.658,-184.389 70.658,-276.276 134.772,-276.276 	"/>
	<path fill="none" stroke="#4B8EC7" stroke-width="2" d="M134.772-184.389"/>
	<polyline fill="none" stroke="#4B8EC7" stroke-width="2" points="144.886,-184.389 144.886,-315.181 209,-315.181 	"/>
	<path fill="none" stroke="#4B8EC7" stroke-width="2" d="M209-184.389"/>
	<polyline fill="none" stroke="#4B8EC7" stroke-width="2" points="221.111,-184.389 221.111,-350.229 285.225,-350.229 	"/>
	<path fill="none" stroke="#4B8EC7" stroke-width="2" d="M285.225-184.389"/>
	<polyline fill="none" stroke="#4B8EC7" stroke-width="2" points="297.193,-184.389 297.193,-390.407 361.307,-390.407 	"/>
	<path fill="none" stroke="#4B8EC7" stroke-width="2" d="M361.307-184.389"/>
	<path fill="none" stroke="#4B8EC7" stroke-width="2" d="M44.099-287.398c0,0,199.397-56.465,292.485-154.345"/>
</g>
<g>
	<polyline fill="none" stroke="#4B8EC7" stroke-width="4" points="403,223.042 211.034,315.92 19.066,223.042 	"/>
	<path fill="none" stroke="#4B8EC7" stroke-width="4" d="M211.034,151.886"/>
	<path fill="none" stroke="#4B8EC7" stroke-width="4" d="M211.034,119.308"/>
	<polyline fill="none" stroke="#4B8EC7" stroke-width="4" points="403,190.464 211.034,283.341 19.066,190.466 	"/>
	<polygon fill="none" stroke="#4B8EC7" stroke-width="4" points="403,159.244 211.034,252.12 19.066,159.245 211.034,88.087 	"/>
</g>
<path fill="none" stroke="#4B8EC7" stroke-width="4" d="M-713.654,201.108"/>
<path fill="none" stroke="#4B8EC7" stroke-width="4" d="M-713.654,177.108"/>
<path fill="none" stroke="#4B8EC7" stroke-width="4" d="M-607.056,215.642c3.339,10.71,5.138,22.099,5.138,33.909
	c0,62.852-50.952,113.805-113.805,113.805s-113.805-50.953-113.805-113.805c0-62.854,50.952-113.806,113.805-113.806
	c22.756,0,43.954,6.679,61.737,18.184"/>
<line fill="none" stroke="#4B8EC7" stroke-width="4" x1="-767.512" y1="252.477" x2="-715.723" y2="306.506"/>
<path fill="none" stroke="#4B8EC7" stroke-width="4" d="M-715.723,306.506c0,0,49.006-109.875,131.639-170.761"/>
<polyline fill="none" stroke="#4B8EC7" stroke-width="4" points="-391.564,311.609 -391.564,219.723 -327.45,219.723 "/>
<path fill="none" stroke="#4B8EC7" stroke-width="4" d="M-327.45,311.609"/>
<polyline fill="none" stroke="#4B8EC7" stroke-width="4" points="-317.336,311.609 -317.336,180.818 -253.222,180.818 "/>
<path fill="none" stroke="#4B8EC7" stroke-width="4" d="M-253.222,311.609"/>
<polyline fill="none" stroke="#4B8EC7" stroke-width="4" points="-241.111,311.609 -241.111,145.769 -176.998,145.769 "/>
<path fill="none" stroke="#4B8EC7" stroke-width="4" d="M-176.998,311.609"/>
<polyline fill="none" stroke="#4B8EC7" stroke-width="4" points="-165.029,311.609 -165.029,105.591 -100.916,105.591 "/>
<path fill="none" stroke="#4B8EC7" stroke-width="4" d="M-100.916,311.609"/>
<path fill="none" stroke="#4B8EC7" stroke-width="4" d="M-418.123,208.601c0,0,199.397-56.465,292.485-154.345"/>
</svg>
